<mxfile host="Electron" agent="Mozilla/5.0 (Windows NT 10.0; Win64; x64) AppleWebKit/537.36 (KHTML, like Gecko) draw.io/24.7.17 Chrome/128.0.6613.36 Electron/32.0.1 Safari/537.36" version="24.7.17">
  <diagram name="第 1 页" id="H0Y1WAOwm7Cv5U7nw0gI">
    <mxGraphModel dx="1221" dy="823" grid="1" gridSize="10" guides="1" tooltips="1" connect="1" arrows="1" fold="1" page="1" pageScale="1" pageWidth="827" pageHeight="1169" math="0" shadow="0">
      <root>
        <mxCell id="0" />
        <mxCell id="1" parent="0" />
        <mxCell id="fT4zunHJ-nCeSVPf7WER-2" style="edgeStyle=orthogonalEdgeStyle;rounded=0;orthogonalLoop=1;jettySize=auto;html=1;exitX=0.5;exitY=1;exitDx=0;exitDy=0;entryX=0.5;entryY=0;entryDx=0;entryDy=0;" edge="1" parent="1" source="fT4zunHJ-nCeSVPf7WER-3" target="fT4zunHJ-nCeSVPf7WER-5">
          <mxGeometry relative="1" as="geometry" />
        </mxCell>
        <mxCell id="fT4zunHJ-nCeSVPf7WER-3" value="&lt;font style=&quot;font-size: 14px;&quot;&gt;程序开始&lt;/font&gt;" style="ellipse;whiteSpace=wrap;html=1;" vertex="1" parent="1">
          <mxGeometry x="340" y="80" width="120" height="40" as="geometry" />
        </mxCell>
        <mxCell id="fT4zunHJ-nCeSVPf7WER-4" style="edgeStyle=orthogonalEdgeStyle;rounded=0;orthogonalLoop=1;jettySize=auto;html=1;exitX=0.5;exitY=1;exitDx=0;exitDy=0;entryX=0.5;entryY=0;entryDx=0;entryDy=0;" edge="1" parent="1" source="fT4zunHJ-nCeSVPf7WER-5" target="fT4zunHJ-nCeSVPf7WER-9">
          <mxGeometry relative="1" as="geometry" />
        </mxCell>
        <mxCell id="fT4zunHJ-nCeSVPf7WER-5" value="&lt;font style=&quot;font-size: 14px;&quot;&gt;输入数字n&lt;/font&gt;" style="shape=parallelogram;perimeter=parallelogramPerimeter;whiteSpace=wrap;html=1;fixedSize=1;" vertex="1" parent="1">
          <mxGeometry x="340" y="160" width="120" height="40" as="geometry" />
        </mxCell>
        <mxCell id="fT4zunHJ-nCeSVPf7WER-6" style="edgeStyle=orthogonalEdgeStyle;rounded=0;orthogonalLoop=1;jettySize=auto;html=1;entryX=0;entryY=0.5;entryDx=0;entryDy=0;" edge="1" parent="1" source="fT4zunHJ-nCeSVPf7WER-9" target="fT4zunHJ-nCeSVPf7WER-10">
          <mxGeometry relative="1" as="geometry" />
        </mxCell>
        <mxCell id="fT4zunHJ-nCeSVPf7WER-7" value="&lt;font style=&quot;font-size: 14px;&quot;&gt;是&lt;/font&gt;" style="edgeLabel;html=1;align=center;verticalAlign=middle;resizable=0;points=[];fontFamily=Helvetica;fontSize=11;fontColor=default;labelBackgroundColor=default;fillColor=none;gradientColor=none;" vertex="1" connectable="0" parent="fT4zunHJ-nCeSVPf7WER-6">
          <mxGeometry x="-0.1778" y="3" relative="1" as="geometry">
            <mxPoint y="-7" as="offset" />
          </mxGeometry>
        </mxCell>
        <mxCell id="fT4zunHJ-nCeSVPf7WER-8" style="edgeStyle=orthogonalEdgeStyle;rounded=0;orthogonalLoop=1;jettySize=auto;html=1;exitX=0.5;exitY=1;exitDx=0;exitDy=0;entryX=0.5;entryY=0;entryDx=0;entryDy=0;fontFamily=Helvetica;fontSize=11;fontColor=default;labelBackgroundColor=default;resizable=0;" edge="1" parent="1" source="fT4zunHJ-nCeSVPf7WER-9" target="fT4zunHJ-nCeSVPf7WER-17">
          <mxGeometry relative="1" as="geometry" />
        </mxCell>
        <mxCell id="fT4zunHJ-nCeSVPf7WER-9" value="&lt;font style=&quot;font-size: 14px;&quot;&gt;是否为EOF&lt;/font&gt;" style="rhombus;whiteSpace=wrap;html=1;" vertex="1" parent="1">
          <mxGeometry x="340" y="240" width="120" height="40" as="geometry" />
        </mxCell>
        <mxCell id="fT4zunHJ-nCeSVPf7WER-10" value="&lt;font style=&quot;font-size: 14px;&quot;&gt;程序结束&lt;/font&gt;" style="ellipse;whiteSpace=wrap;html=1;" vertex="1" parent="1">
          <mxGeometry x="520" y="240" width="120" height="40" as="geometry" />
        </mxCell>
        <mxCell id="fT4zunHJ-nCeSVPf7WER-22" style="edgeStyle=orthogonalEdgeStyle;rounded=0;orthogonalLoop=1;jettySize=auto;html=1;exitX=1;exitY=0.5;exitDx=0;exitDy=0;entryX=0.5;entryY=0;entryDx=0;entryDy=0;" edge="1" parent="1" source="fT4zunHJ-nCeSVPf7WER-17" target="fT4zunHJ-nCeSVPf7WER-21">
          <mxGeometry relative="1" as="geometry" />
        </mxCell>
        <mxCell id="fT4zunHJ-nCeSVPf7WER-30" value="&lt;font style=&quot;font-size: 14px;&quot;&gt;是&lt;/font&gt;" style="edgeLabel;html=1;align=center;verticalAlign=middle;resizable=0;points=[];" vertex="1" connectable="0" parent="fT4zunHJ-nCeSVPf7WER-22">
          <mxGeometry x="0.0921" y="-2" relative="1" as="geometry">
            <mxPoint x="12" as="offset" />
          </mxGeometry>
        </mxCell>
        <mxCell id="fT4zunHJ-nCeSVPf7WER-26" value="" style="edgeStyle=orthogonalEdgeStyle;rounded=0;orthogonalLoop=1;jettySize=auto;html=1;" edge="1" parent="1" source="fT4zunHJ-nCeSVPf7WER-17" target="fT4zunHJ-nCeSVPf7WER-25">
          <mxGeometry relative="1" as="geometry" />
        </mxCell>
        <mxCell id="fT4zunHJ-nCeSVPf7WER-39" value="&lt;font style=&quot;font-size: 14px;&quot;&gt;否&lt;/font&gt;" style="edgeLabel;html=1;align=center;verticalAlign=middle;resizable=0;points=[];" vertex="1" connectable="0" parent="fT4zunHJ-nCeSVPf7WER-26">
          <mxGeometry x="-0.1067" y="2" relative="1" as="geometry">
            <mxPoint x="12" y="-8" as="offset" />
          </mxGeometry>
        </mxCell>
        <mxCell id="fT4zunHJ-nCeSVPf7WER-17" value="判断n==4" style="rhombus;whiteSpace=wrap;html=1;align=center;verticalAlign=middle;fontFamily=Helvetica;fontSize=14;fontColor=default;labelBackgroundColor=none;resizable=1;fillColor=none;gradientColor=none;movable=1;rotatable=1;deletable=1;editable=1;locked=0;connectable=1;" vertex="1" parent="1">
          <mxGeometry x="335" y="320" width="130" height="40" as="geometry" />
        </mxCell>
        <mxCell id="fT4zunHJ-nCeSVPf7WER-18" style="edgeStyle=orthogonalEdgeStyle;rounded=0;orthogonalLoop=1;jettySize=auto;html=1;exitX=0.5;exitY=1;exitDx=0;exitDy=0;fontFamily=Helvetica;fontSize=11;fontColor=default;labelBackgroundColor=default;resizable=0;" edge="1" parent="1" source="fT4zunHJ-nCeSVPf7WER-19">
          <mxGeometry relative="1" as="geometry">
            <mxPoint x="400" y="140" as="targetPoint" />
            <Array as="points">
              <mxPoint x="400" y="720" />
              <mxPoint x="210" y="720" />
              <mxPoint x="210" y="140" />
            </Array>
          </mxGeometry>
        </mxCell>
        <mxCell id="fT4zunHJ-nCeSVPf7WER-19" value="输出n=i+(n-i)" style="shape=parallelogram;perimeter=parallelogramPerimeter;whiteSpace=wrap;html=1;fixedSize=1;align=center;verticalAlign=middle;fontFamily=Helvetica;fontSize=14;fontColor=default;labelBackgroundColor=default;resizable=1;fillColor=none;gradientColor=none;movable=1;rotatable=1;deletable=1;editable=1;locked=0;connectable=1;" vertex="1" parent="1">
          <mxGeometry x="340" y="640" width="120" height="40" as="geometry" />
        </mxCell>
        <mxCell id="fT4zunHJ-nCeSVPf7WER-23" style="edgeStyle=orthogonalEdgeStyle;rounded=0;orthogonalLoop=1;jettySize=auto;html=1;exitX=0.5;exitY=1;exitDx=0;exitDy=0;" edge="1" parent="1" source="fT4zunHJ-nCeSVPf7WER-21">
          <mxGeometry relative="1" as="geometry">
            <mxPoint x="400" y="720" as="targetPoint" />
            <Array as="points">
              <mxPoint x="690" y="720" />
            </Array>
          </mxGeometry>
        </mxCell>
        <mxCell id="fT4zunHJ-nCeSVPf7WER-21" value="&lt;font style=&quot;font-size: 14px;&quot;&gt;输出4=2+2&lt;/font&gt;" style="shape=parallelogram;perimeter=parallelogramPerimeter;whiteSpace=wrap;html=1;fixedSize=1;" vertex="1" parent="1">
          <mxGeometry x="630" y="640" width="120" height="40" as="geometry" />
        </mxCell>
        <mxCell id="fT4zunHJ-nCeSVPf7WER-28" style="edgeStyle=orthogonalEdgeStyle;rounded=0;orthogonalLoop=1;jettySize=auto;html=1;exitX=0;exitY=0.5;exitDx=0;exitDy=0;" edge="1" parent="1" source="fT4zunHJ-nCeSVPf7WER-24">
          <mxGeometry relative="1" as="geometry">
            <mxPoint x="210" y="490" as="targetPoint" />
          </mxGeometry>
        </mxCell>
        <mxCell id="fT4zunHJ-nCeSVPf7WER-29" value="&lt;font style=&quot;font-size: 14px;&quot;&gt;否&lt;/font&gt;" style="edgeLabel;html=1;align=center;verticalAlign=middle;resizable=0;points=[];" vertex="1" connectable="0" parent="fT4zunHJ-nCeSVPf7WER-28">
          <mxGeometry x="0.0164" y="1" relative="1" as="geometry">
            <mxPoint y="-11" as="offset" />
          </mxGeometry>
        </mxCell>
        <mxCell id="fT4zunHJ-nCeSVPf7WER-32" value="" style="edgeStyle=orthogonalEdgeStyle;rounded=0;orthogonalLoop=1;jettySize=auto;html=1;" edge="1" parent="1" source="fT4zunHJ-nCeSVPf7WER-24" target="fT4zunHJ-nCeSVPf7WER-31">
          <mxGeometry relative="1" as="geometry" />
        </mxCell>
        <mxCell id="fT4zunHJ-nCeSVPf7WER-38" value="&lt;font style=&quot;font-size: 14px;&quot;&gt;是&lt;/font&gt;" style="edgeLabel;html=1;align=center;verticalAlign=middle;resizable=0;points=[];" vertex="1" connectable="0" parent="fT4zunHJ-nCeSVPf7WER-32">
          <mxGeometry x="-0.2333" y="2" relative="1" as="geometry">
            <mxPoint x="12" y="5" as="offset" />
          </mxGeometry>
        </mxCell>
        <mxCell id="fT4zunHJ-nCeSVPf7WER-24" value="i &amp;lt;= n / 2" style="rhombus;whiteSpace=wrap;html=1;" vertex="1" parent="1">
          <mxGeometry x="340" y="470" width="120" height="40" as="geometry" />
        </mxCell>
        <mxCell id="fT4zunHJ-nCeSVPf7WER-27" value="" style="edgeStyle=orthogonalEdgeStyle;rounded=0;orthogonalLoop=1;jettySize=auto;html=1;" edge="1" parent="1" source="fT4zunHJ-nCeSVPf7WER-25" target="fT4zunHJ-nCeSVPf7WER-24">
          <mxGeometry relative="1" as="geometry" />
        </mxCell>
        <mxCell id="fT4zunHJ-nCeSVPf7WER-25" value="&lt;font style=&quot;font-size: 14px;&quot;&gt;i = 3&lt;/font&gt;" style="rounded=0;whiteSpace=wrap;html=1;" vertex="1" parent="1">
          <mxGeometry x="340" y="390" width="120" height="40" as="geometry" />
        </mxCell>
        <mxCell id="fT4zunHJ-nCeSVPf7WER-36" style="edgeStyle=orthogonalEdgeStyle;rounded=0;orthogonalLoop=1;jettySize=auto;html=1;exitX=0.5;exitY=1;exitDx=0;exitDy=0;entryX=0.5;entryY=0;entryDx=0;entryDy=0;" edge="1" parent="1" source="fT4zunHJ-nCeSVPf7WER-31" target="fT4zunHJ-nCeSVPf7WER-19">
          <mxGeometry relative="1" as="geometry" />
        </mxCell>
        <mxCell id="fT4zunHJ-nCeSVPf7WER-37" value="&lt;font style=&quot;font-size: 14px;&quot;&gt;是&lt;/font&gt;" style="edgeLabel;html=1;align=center;verticalAlign=middle;resizable=0;points=[];" vertex="1" connectable="0" parent="fT4zunHJ-nCeSVPf7WER-36">
          <mxGeometry x="-0.363" y="4" relative="1" as="geometry">
            <mxPoint x="10" y="6" as="offset" />
          </mxGeometry>
        </mxCell>
        <mxCell id="fT4zunHJ-nCeSVPf7WER-43" value="" style="edgeStyle=orthogonalEdgeStyle;rounded=0;orthogonalLoop=1;jettySize=auto;html=1;" edge="1" parent="1" source="fT4zunHJ-nCeSVPf7WER-31" target="fT4zunHJ-nCeSVPf7WER-42">
          <mxGeometry relative="1" as="geometry" />
        </mxCell>
        <mxCell id="fT4zunHJ-nCeSVPf7WER-31" value="&lt;font style=&quot;font-size: 14px;&quot;&gt;i 和 n - i 均为素数&lt;/font&gt;" style="rhombus;whiteSpace=wrap;html=1;" vertex="1" parent="1">
          <mxGeometry x="320" y="550" width="160" height="45" as="geometry" />
        </mxCell>
        <mxCell id="fT4zunHJ-nCeSVPf7WER-44" style="edgeStyle=orthogonalEdgeStyle;rounded=0;orthogonalLoop=1;jettySize=auto;html=1;exitX=0.5;exitY=0;exitDx=0;exitDy=0;" edge="1" parent="1" source="fT4zunHJ-nCeSVPf7WER-42">
          <mxGeometry relative="1" as="geometry">
            <mxPoint x="400" y="450" as="targetPoint" />
            <Array as="points">
              <mxPoint x="560" y="450" />
            </Array>
          </mxGeometry>
        </mxCell>
        <mxCell id="fT4zunHJ-nCeSVPf7WER-42" value="&lt;font style=&quot;font-size: 14px;&quot;&gt;i ++&lt;/font&gt;" style="rounded=0;whiteSpace=wrap;html=1;" vertex="1" parent="1">
          <mxGeometry x="530" y="552.5" width="60" height="40" as="geometry" />
        </mxCell>
      </root>
    </mxGraphModel>
  </diagram>
</mxfile>
